<?xml version="1.0" encoding="UTF-8"?>
<svg id="Layer_2" data-name="Layer 2" xmlns="http://www.w3.org/2000/svg" viewBox="0 0 360.72 234.22">
  <defs>
    <style>
      .cls-1 {
        fill: #5b0cc1;
      }

      .cls-2 {
        fill: #49cfd6;
      }
    </style>
  </defs>
  <g id="Layer_1-2" data-name="Layer 1">
    <g>
      <path class="cls-2" d="M66.3,234.22H18.88c-10.39,0-18.81-8.42-18.81-18.81L0,18.82c0-4.99,1.98-9.78,5.51-13.31C9.04,1.98,13.82,0,18.81,0h47.48c26.68,0,49.72,0,70.02,5.05,24.35,6.06,42.26,19.16,54.75,40.06,5.33,8.92,2.42,20.47-6.5,25.8-8.92,5.33-20.47,2.42-25.8-6.5-15.37-25.7-39.45-26.79-92.47-26.79h-28.66s.06,158.96.06,158.96h28.61c20.19,0,28.13-7.83,39.32-26.55l41.33-69.14c8.61-14.41,23.04-23.02,38.6-23.02,15.95,0,30.37,8.81,39.56,24.18l45.83,76.67,54.82-91.72c5.33-8.92,16.88-11.83,25.8-6.5,8.92,5.33,11.83,16.88,6.5,25.8l-70.97,118.73c-3.4,5.68-9.53,9.16-16.15,9.16-6.62,0-12.75-3.48-16.15-9.16l-61.98-103.68c-2.23-3.73-4.87-5.86-7.26-5.86-2.19,0-4.54,1.75-6.3,4.69l-41.33,69.15c-19.05,31.87-39.8,44.87-71.62,44.87Z"/>
      <path class="cls-1" d="M66.3,234.22H18.88c-10.39,0-18.81-8.42-18.81-18.81L0,18.82c0-4.99,1.98-9.78,5.51-13.31C9.04,1.98,13.82,0,18.81,0h47.48c26.68,0,49.72,0,70.02,5.05,24.35,6.06,42.26,19.16,54.75,40.06,5.33,8.92,2.42,20.47-6.5,25.8-8.92,5.33-20.47,2.42-25.8-6.5-15.37-25.7-39.45-26.79-92.47-26.79h-28.66s.06,158.96.06,158.96h28.61c20.19,0,28.13-7.83,39.32-26.55l41.33-69.14c8.61-14.41,23.04-23.02,38.6-23.02,15.95,0,30.37,8.81,39.56,24.18l45.83,76.67,54.82-91.72c5.33-8.92,16.88-11.83,25.8-6.5,8.92,5.33,11.83,16.88,6.5,25.8l-70.97,118.73c-3.4,5.68-9.53,9.16-16.15,9.16-6.62,0-12.75-3.48-16.15-9.16l-61.98-103.68c-2.23-3.73-4.87-5.86-7.26-5.86-2.19,0-4.54,1.75-6.3,4.69l-41.33,69.15c-19.05,31.87-39.8,44.87-71.62,44.87Z"/>
    </g>
  </g>
</svg>