<?xml version="1.0" encoding="UTF-8"?>
<svg id="Layer_2" data-name="Layer 2" xmlns="http://www.w3.org/2000/svg" viewBox="0 0 355.79 144.07">
  <defs>
    <style>
      .cls-1 {
        fill: #5b0cc1;
      }
    </style>
  </defs>
  <g id="Layer_1-2" data-name="Layer 1">
    <path class="cls-1" d="M264.68,124.9c4,.6,8.03,1.35,11.95,2.55,2.12.68,4.29,1.44,6.24,2.81,2.54,1.7,3.61,4.99,1.4,7.47-1.87,2.02-4.22,2.69-6.5,3.42-6.51,1.8-13.3,2.35-19.91,2.71-10.53.47-21.06.13-31.52-1.11-5.95-.81-16.3-2.17-21.04-5.68-.97-.71-1.77-2.11-1.13-3.3,1.79-3.31,10.4-4.44,13.95-5.01,2.59-.36,5.19-.61,7.79-.79-2.59.33-5.16.72-7.72,1.22-2.62.53-13.11,2.66-12.95,5.67,1.18,2.87,10.62,4.15,13.65,4.59,7.69.99,15.47,1.21,23.21,1.07,10.2-.26,20.66-1.02,30.52-3.42,2.2-.57,4.7-1.3,6.56-2.41.39-.24.72-.53.74-.6.02-.03-.07.03-.14.29-.08.25-.05.63.02.8.09.24.1.18-.02.11-1.39-.95-3.1-1.39-4.83-1.86-3.62-.89-7.34-1.37-11.09-1.72-1.89-.18-3.27-1.85-3.1-3.73.18-1.95,1.98-3.37,3.92-3.07h0ZM11.04,0C4.62,0,0,4.82,0,11.04s4.42,10.84,10.64,10.84c7.03,0,11.45-4.82,11.24-10.84C21.89,4.82,17.67,0,11.04,0ZM19.88,135.54V38.35H2.21v97.18h17.67ZM32.93,135.54h17.67v-58.43c0-3.01.4-6.02,1.2-8.23,3.01-9.84,12.05-18.07,23.69-18.07,16.67,0,22.49,13.05,22.49,28.71v56.02h17.67v-58.03c0-33.33-20.88-41.36-34.34-41.36-16.06,0-27.31,9.04-32.13,18.27h-.4l-1-16.06h-15.66c.6,8.03.8,16.26.8,26.3v70.88ZM355.79,135.54c-1.2-6.63-1.61-14.86-1.61-23.29v-36.34c0-19.48-7.23-39.76-36.95-39.76-12.25,0-23.89,3.41-31.93,8.63l4.02,11.65c6.83-4.42,16.26-7.23,25.3-7.23,19.88,0,22.09,14.46,22.09,22.49v2.01c-37.55-.2-58.43,12.65-58.43,36.14,0,14.06,10.04,27.91,29.72,27.91,13.86,0,24.3-6.83,29.72-14.46h.6l1.41,12.25h16.06ZM337.12,102.81c0,1.81-.4,3.82-1,5.62-2.81,8.23-10.84,16.26-23.49,16.26-9.04,0-16.67-5.42-16.67-16.87,0-18.87,21.89-22.29,41.16-21.89v16.87ZM185.06,116.51l18.16-30.38c.77-1.29,1.81-2.06,2.77-2.06,1.05,0,2.21.94,3.19,2.58l27.23,45.55c1.49,2.5,4.19,4.02,7.09,4.02s5.6-1.53,7.09-4.02l31.18-52.16c2.34-3.92,1.06-8.99-2.85-11.34-3.92-2.34-8.99-1.06-11.34,2.85l-24.09,40.29-20.13-33.68c-4.04-6.75-10.37-10.63-17.38-10.62-6.83,0-13.17,3.78-16.96,10.11l-18.16,30.38c-4.92,8.23-8.4,11.66-17.28,11.66h-12.57l-.02-69.84h12.59c23.29,0,33.87.48,40.63,11.77,2.34,3.92,7.42,5.2,11.34,2.85,3.92-2.34,5.2-7.42,2.85-11.34-5.49-9.18-13.36-14.94-24.05-17.6-8.92-2.22-19.04-2.22-30.76-2.22h-20.86c-2.19,0-4.3.87-5.85,2.42s-2.42,3.65-2.42,5.85l.03,86.37c0,4.56,3.7,8.26,8.27,8.26h20.83c13.98,0,23.1-5.71,31.47-19.71Z"/>
  </g>
</svg>